<?xml version="1.0" standalone="no"?>
<!DOCTYPE svg PUBLIC "-//W3C//DTD SVG 20010904//EN"
 "http://www.w3.org/TR/2001/REC-SVG-20010904/DTD/svg10.dtd">
<svg version="1.0" xmlns="http://www.w3.org/2000/svg"
 width="1024.000000pt" height="1024.000000pt" viewBox="0 0 1024.000000 1024.000000"
 preserveAspectRatio="xMidYMid meet">
<metadata>
Created by potrace 1.11, written by Peter Selinger 2001-2013
</metadata>
<g transform="translate(0.000000,1024.000000) scale(0.100000,-0.100000)"
fill="#000000" stroke="none">
<path d="M4284 8734 c-75 -15 -94 -25 -161 -88 -60 -56 -120 -168 -131 -243
-32 -233 48 -408 209 -456 140 -41 239 68 180 198 -23 52 -74 96 -153 134 -71
34 -89 56 -90 109 0 50 22 101 67 151 47 51 77 66 142 70 162 8 276 -120 314
-354 30 -186 -28 -399 -191 -711 -246 -469 -316 -625 -334 -748 -4 -21 -9 -42
-11 -47 -12 -18 -14 -217 -4 -289 35 -254 179 -449 371 -505 67 -19 174 -21
243 -5 73 17 222 92 279 139 26 23 49 41 50 41 0 0 1 -44 1 -98 0 -88 3 -101
28 -144 65 -111 165 -121 212 -22 24 50 14 126 -27 211 -53 111 -44 256 27
423 72 169 132 395 211 804 l38 198 18 -71 c24 -98 43 -151 79 -224 79 -157
156 -243 359 -405 314 -251 422 -396 429 -578 4 -107 -45 -176 -134 -189 -52
-8 -106 14 -138 57 -35 47 -32 175 5 224 13 18 16 86 5 119 -19 60 -88 111
-144 108 -7 0 -22 -1 -33 -2 -30 -2 -86 -56 -110 -109 -34 -72 -38 -189 -10
-271 59 -174 194 -272 376 -272 205 0 317 120 309 329 -7 176 -82 329 -239
480 -74 72 -74 79 -1 52 12 -4 59 -7 105 -6 65 1 94 7 125 23 85 45 118 95
103 152 -27 99 -130 119 -266 50 -67 -33 -93 -41 -148 -44 -75 -3 -165 15
-222 44 -131 67 -272 271 -322 466 -19 72 -23 101 -35 200 l-4 40 33 -54 c98
-157 272 -252 451 -245 242 9 412 253 359 513 -15 72 -29 105 -73 170 -30 45
-100 100 -130 102 -9 1 -27 3 -40 4 -45 4 -89 -15 -125 -55 -36 -40 -40 -51
-38 -100 3 -53 15 -76 82 -144 51 -53 72 -84 85 -124 42 -129 -33 -238 -161
-231 -236 13 -390 223 -371 508 16 247 158 444 382 531 49 19 80 24 165 24 93
1 111 -2 160 -25 143 -67 234 -217 257 -419 4 -41 8 -608 8 -1260 l0 -1185
-1348 -3 -1347 -2 0 1105 0 1105 -532 -2 -533 -3 -1 -2340 c0 -1287 -4 -2367
-8 -2400 -34 -282 -131 -454 -260 -461 -109 -6 -193 98 -232 286 -8 42 -12
114 -9 205 4 160 24 259 104 520 99 319 121 439 116 620 -5 212 -56 344 -245
639 -131 205 -196 337 -218 441 -4 17 -6 62 -6 100 1 84 25 142 86 204 58 61
117 84 196 78 76 -6 124 -38 159 -108 46 -89 20 -177 -75 -257 -124 -104 -159
-160 -149 -243 11 -94 59 -145 145 -156 125 -14 256 113 288 279 37 195 -53
455 -194 559 -139 102 -339 74 -465 -64 l-38 -42 6 40 c32 216 150 472 299
649 121 143 181 250 211 374 21 86 17 229 -10 307 -55 167 -212 238 -309 141
-69 -70 -53 -191 40 -299 59 -70 68 -185 24 -316 -20 -61 -35 -86 -124 -216
l-40 -57 -12 60 c-20 96 -64 167 -121 196 -94 47 -183 -12 -168 -111 5 -38 16
-55 67 -107 34 -33 70 -81 81 -106 28 -62 30 -160 6 -235 -59 -179 -82 -312
-81 -465 2 -195 59 -347 237 -625 21 -33 57 -89 80 -125 23 -36 51 -82 64
-102 l22 -37 -66 44 c-85 57 -158 79 -260 78 -301 -3 -453 -328 -299 -641 40
-82 118 -169 182 -201 23 -12 69 -24 101 -28 52 -5 67 -2 115 21 191 94 266
402 131 543 -44 45 -76 54 -128 34 -64 -25 -94 -152 -57 -248 31 -83 30 -140
-6 -182 -33 -40 -68 -40 -120 -2 -54 39 -93 86 -123 151 -33 73 -40 214 -12
275 44 97 120 146 225 146 144 0 264 -86 341 -245 92 -191 98 -389 19 -622 -9
-27 -17 -53 -18 -59 -2 -5 -16 -55 -34 -110 -32 -103 -61 -211 -68 -255 -3
-14 -7 -31 -9 -38 -7 -19 -19 -167 -19 -227 1 -58 11 -179 18 -215 50 -238
200 -394 365 -378 186 18 332 239 366 558 4 36 8 74 10 85 2 11 4 1042 4 2290
l1 2270 399 0 c220 0 403 -4 407 -8 4 -4 8 -501 8 -1104 l1 -1097 1460 -1
c803 0 1466 1 1473 3 10 3 12 265 12 1286 -1 1388 0 1360 -56 1514 -130 359
-498 472 -839 257 -258 -163 -406 -509 -539 -1260 -3 -16 -10 -55 -16 -85 -6
-30 -13 -66 -16 -80 -2 -14 -11 -56 -20 -95 -8 -38 -16 -79 -18 -90 -31 -164
-137 -473 -188 -547 -10 -14 -18 -29 -18 -33 0 -9 -58 -93 -90 -129 -138 -161
-328 -238 -493 -200 -166 39 -280 188 -294 385 -13 181 84 320 223 320 125 0
178 -77 131 -191 -39 -92 -17 -159 60 -185 113 -39 212 80 201 243 -8 116 -65
209 -156 253 -39 20 -63 23 -147 23 -86 1 -106 -3 -145 -23 l-44 -24 33 39
c54 63 138 130 261 212 203 133 288 205 364 302 146 187 168 412 46 475 -62
32 -132 5 -162 -63 -17 -38 -19 -56 -12 -121 14 -135 4 -200 -41 -271 -37 -58
-73 -87 -266 -212 -49 -31 -116 -77 -149 -103 l-60 -47 23 44 c13 24 55 102
92 173 187 356 227 451 276 654 34 140 64 196 154 285 39 38 74 62 113 76 86
33 129 60 157 100 69 100 26 204 -85 203 -108 0 -212 -87 -285 -237 -41 -83
-44 -87 -50 -60 -4 16 -9 38 -12 49 -8 32 -67 158 -83 179 -121 152 -239 203
-396 170z"/>
<path d="M7950 7681 c-109 -36 -199 -136 -261 -294 -12 -29 -22 -59 -24 -67
-2 -8 -8 -35 -14 -60 -16 -72 -20 -100 -27 -180 -4 -41 -7 -1090 -7 -2330 0
-1240 -4 -2257 -8 -2260 -6 -4 -777 -5 -800 -1 -3 1 -6 493 -7 1094 0 600 -1
1097 -1 1102 -1 11 -2919 14 -2936 3 -12 -7 -12 -2499 -1 -2598 46 -388 309
-615 641 -553 187 35 348 145 460 313 122 184 206 438 295 895 17 88 45 225
61 305 17 80 33 159 35 175 3 17 14 64 25 105 12 41 23 85 25 96 2 12 22 74
44 139 68 195 141 325 240 426 85 86 156 128 269 159 253 68 479 -119 484
-400 1 -90 -13 -142 -56 -207 -74 -110 -252 -130 -302 -33 -20 39 -19 64 5
133 25 71 25 94 0 134 -24 40 -53 55 -102 55 -97 -2 -161 -94 -161 -231 0
-124 61 -227 163 -274 69 -32 209 -34 272 -3 39 19 45 20 38 6 -19 -35 -143
-141 -242 -206 -266 -176 -393 -292 -460 -420 -45 -86 -60 -142 -60 -220 0
-117 64 -187 155 -170 62 12 109 89 100 166 -18 163 -7 239 45 310 40 54 65
74 247 194 94 62 176 121 184 130 7 9 18 16 23 16 8 0 -5 -27 -109 -219 -155
-285 -233 -472 -268 -636 -21 -100 -40 -147 -86 -211 -61 -83 -131 -140 -205
-164 -119 -40 -189 -134 -161 -217 35 -104 174 -101 288 5 46 42 70 76 106
149 l47 94 13 -53 c36 -143 141 -291 245 -344 157 -79 338 -35 444 108 66 91
94 175 95 289 0 212 -115 367 -276 371 -47 1 -108 -29 -120 -60 -46 -111 -1
-203 130 -268 96 -48 115 -70 111 -133 -4 -56 -22 -93 -68 -143 -43 -47 -93
-68 -160 -68 -123 1 -217 89 -272 256 -45 137 -37 296 25 486 30 92 152 353
224 478 139 242 238 479 261 624 3 21 8 48 10 60 7 29 6 215 -1 246 -3 14 -8
39 -11 55 -31 175 -143 344 -273 414 -68 36 -174 60 -241 54 -119 -10 -248
-62 -353 -142 l-63 -47 0 85 c0 66 -5 97 -22 134 -75 168 -241 133 -235 -50 1
-18 15 -63 32 -100 36 -79 42 -101 43 -163 2 -75 -11 -146 -38 -217 -104 -271
-161 -483 -235 -875 -19 -98 -37 -178 -41 -178 -5 0 -7 3 -6 8 3 16 -16 91
-45 172 -28 78 -38 99 -79 171 -29 52 -91 131 -140 181 -54 54 -67 65 -243
206 -232 186 -340 327 -363 475 -19 118 6 187 78 225 54 27 82 28 135 2 82
-40 101 -127 56 -254 -25 -71 -26 -107 -5 -151 36 -76 129 -109 200 -72 83 43
130 198 100 329 -25 108 -108 221 -196 267 -100 52 -260 55 -355 6 -98 -51
-147 -141 -146 -274 0 -183 82 -347 255 -515 46 -44 55 -56 36 -51 -93 29
-173 32 -244 11 -151 -46 -191 -181 -72 -243 47 -24 121 -13 212 33 74 37 83
39 164 38 164 -3 277 -70 389 -234 89 -130 142 -278 156 -440 l6 -75 -21 40
c-121 222 -411 323 -618 216 -129 -66 -218 -235 -211 -399 6 -136 86 -285 176
-327 110 -53 228 6 240 118 7 57 -24 114 -90 169 -107 90 -119 251 -23 322 39
30 150 28 228 -3 159 -62 251 -222 251 -436 1 -179 -57 -323 -178 -442 -118
-116 -256 -171 -407 -160 -156 10 -270 101 -336 267 -51 128 -50 119 -51 1418
l-1 1212 1348 0 1349 0 1 -1092 c0 -601 1 -1099 1 -1105 1 -10 114 -13 531
-13 l530 0 0 58 c0 31 2 1103 4 2382 1 1279 6 2341 10 2360 4 19 9 44 11 55
12 63 17 81 37 133 71 191 191 266 303 191 95 -64 153 -234 149 -434 -3 -167
-22 -264 -109 -550 -95 -314 -117 -428 -117 -602 1 -212 56 -358 251 -663 155
-241 220 -392 224 -515 5 -205 -195 -364 -359 -285 -66 33 -119 123 -108 188
13 75 35 109 126 186 84 71 106 102 118 164 12 67 -3 117 -49 163 -71 72 -184
60 -277 -29 -128 -123 -147 -363 -48 -581 87 -189 229 -271 408 -236 55 11
136 58 185 108 l50 50 -21 -93 c-42 -194 -131 -396 -234 -526 -204 -261 -237
-318 -271 -469 -9 -42 -10 -146 -1 -202 32 -203 194 -325 312 -232 38 30 57
73 57 127 1 57 -18 104 -67 167 -51 67 -66 110 -66 180 2 123 32 201 135 343
32 45 60 82 61 82 1 0 3 -16 4 -36 4 -50 39 -139 70 -176 80 -95 222 -68 222
42 0 57 -24 104 -77 147 -99 81 -119 195 -64 368 45 140 63 239 67 375 7 251
-33 353 -310 792 -47 75 -86 139 -86 142 0 3 23 -11 50 -32 105 -79 267 -108
385 -68 146 49 246 197 246 365 1 190 -107 390 -249 461 -35 18 -64 25 -112
25 -76 0 -120 -18 -177 -74 -133 -131 -161 -381 -55 -491 61 -64 146 -49 189
33 23 45 20 130 -6 203 -13 35 -21 74 -18 90 18 104 70 130 151 75 160 -111
204 -382 81 -506 -57 -56 -154 -80 -247 -60 -187 41 -334 272 -342 540 -3 101
12 180 69 365 66 213 104 354 119 445 21 123 14 354 -12 451 -40 149 -122 268
-216 316 -44 22 -145 33 -186 19z"/>
</g>
</svg>
